<svg xmlns="http://www.w3.org/2000/svg" xmlns:xlink="http://www.w3.org/1999/xlink" width="40" zoomAndPan="magnify" viewBox="0 0 30 30.000001" height="40" preserveAspectRatio="xMidYMid meet" version="1.2"><defs/><g id="8129e102e5"><g style="fill:#ffffff;fill-opacity:1;"><g transform="translate(6.777882, 22.137098)"><path style="stroke:none" d="M 15.21875 0 L 12.171875 0 L 9.265625 -4.8125 C 9.117188 -4.800781 8.878906 -4.796875 8.546875 -4.796875 L 4.765625 -4.796875 L 4.765625 0 L 2.09375 0 L 2.09375 -15.90625 L 8.546875 -15.90625 C 10.578125 -15.90625 12.148438 -15.429688 13.265625 -14.484375 C 14.390625 -13.535156 14.953125 -12.195312 14.953125 -10.46875 C 14.953125 -9.195312 14.664062 -8.117188 14.09375 -7.234375 C 13.53125 -6.359375 12.71875 -5.71875 11.65625 -5.3125 Z M 4.765625 -7.203125 L 8.546875 -7.203125 C 9.785156 -7.203125 10.738281 -7.46875 11.40625 -8 C 12.070312 -8.539062 12.40625 -9.34375 12.40625 -10.40625 C 12.40625 -11.4375 12.070312 -12.207031 11.40625 -12.71875 C 10.738281 -13.238281 9.785156 -13.5 8.546875 -13.5 L 4.765625 -13.5 Z M 4.765625 -7.203125 "/></g></g></g></svg>